<?xml version="1.0" encoding="UTF-8" standalone="no"?>
<!-- Created with Inkscape (http://www.inkscape.org/) -->

<svg
   xmlns:dc="http://purl.org/dc/elements/1.1/"
   xmlns:cc="http://creativecommons.org/ns#"
   xmlns:rdf="http://www.w3.org/1999/02/22-rdf-syntax-ns#"
   xmlns:svg="http://www.w3.org/2000/svg"
   xmlns="http://www.w3.org/2000/svg"
   xmlns:sodipodi="http://sodipodi.sourceforge.net/DTD/sodipodi-0.dtd"
   xmlns:inkscape="http://www.inkscape.org/namespaces/inkscape"
   width="54.299999"
   height="59.962276"
   id="svg2"
   version="1.1"
   inkscape:version="0.48.2 r9819"
   sodipodi:docname="dibujo">
  <defs
     id="defs4" />
  <sodipodi:namedview
     id="base"
     pagecolor="#ffffff"
     bordercolor="#666666"
     borderopacity="1.0"
     inkscape:pageopacity="0.0"
     inkscape:pageshadow="2"
     inkscape:zoom="5.6"
     inkscape:cx="132.39496"
     inkscape:cy="17.050789"
     inkscape:document-units="px"
     inkscape:current-layer="layer1"
     showgrid="false"
     inkscape:window-width="1920"
     inkscape:window-height="1017"
     inkscape:window-x="-8"
     inkscape:window-y="-8"
     inkscape:window-maximized="1"
     fit-margin-top="0"
     fit-margin-left="0"
     fit-margin-right="0"
     fit-margin-bottom="0">
    <sodipodi:guide
       position="-441.42143,-264.30457"
       orientation="0,744.09448"
       id="guide3049" />
    <sodipodi:guide
       position="302.67305,-264.30457"
       orientation="-1052.3622,0"
       id="guide3051" />
    <sodipodi:guide
       position="302.67305,788.05763"
       orientation="0,-744.09448"
       id="guide3053" />
    <sodipodi:guide
       position="-441.42143,788.05763"
       orientation="1052.3622,0"
       id="guide3055" />
  </sodipodi:namedview>
  <metadata
     id="metadata7">
    <rdf:RDF>
      <cc:Work
         rdf:about="">
        <dc:format>image/svg+xml</dc:format>
        <dc:type
           rdf:resource="http://purl.org/dc/dcmitype/StillImage" />
        <dc:title></dc:title>
      </cc:Work>
    </rdf:RDF>
  </metadata>
  <g
     inkscape:label="Capa 1"
     inkscape:groupmode="layer"
     id="layer1"
     transform="translate(-441.42143,-728.09533)">
    <g
       id="XMLID_2_"
       transform="translate(420.52143,710.07647)">
      <path
         d="M 74.3,49.2 23,77.7 c -0.6,0.3 -1.1,0.4 -1.5,0.1 -0.4,-0.3 -0.6,-0.7 -0.6,-1.4 V 19.6 c 0,-0.7 0.2,-1.1 0.6,-1.4 0.4,-0.3 0.9,-0.2 1.5,0.1 l 51.3,28.5 c 0.6,0.3 0.9,0.7 0.9,1.2 0,0.5 -0.3,0.9 -0.9,1.2 z"
         class="st0"
         id="XMLID_4_"
         inkscape:connector-curvature="0"
         style="fill:#333333" />
    </g>
    <path
       style="fill:#e6e6e6;stroke:none"
       d="m 442.12539,787.89234 c -0.24097,-0.15208 -0.48592,-0.47188 -0.58259,-0.76062 -0.10847,-0.32398 -0.10267,-57.75166 0.006,-58.11394 0.045,-0.15033 0.19946,-0.38572 0.3672,-0.55975 0.27629,-0.28664 0.30511,-0.30026 0.63254,-0.29883 0.21087,9.2e-4 0.47687,0.0571 0.6903,0.14575 0.19099,0.0793 11.92454,6.57562 26.07457,14.43619 19.13001,10.62703 25.79449,14.35809 25.98925,14.5499 0.50084,0.49325 0.49962,1.10345 -0.003,1.58162 -0.18637,0.17724 -7.90629,4.49707 -25.89381,14.48937 -14.09555,7.83026 -25.79485,14.31791 -25.99844,14.41701 -0.49234,0.23963 -1.00916,0.28532 -1.28172,0.1133 l 0,0 z"
       id="path2999"
       inkscape:connector-curvature="0" />
    <path
       style="fill:#ffffff"
       d="m 442.1206,787.82207 c -0.11146,-0.068 -0.28192,-0.24334 -0.3788,-0.38972 l -0.17615,-0.26614 -0.0418,-14.11521 c -0.023,-7.76337 -0.023,-20.85094 0,-29.08351 l 0.0418,-14.9683 0.18551,-0.26768 c 0.31824,-0.45919 0.44754,-0.52843 0.92444,-0.49502 0.40716,0.0285 0.48609,0.068 3.94591,1.97357 7.98001,4.39519 39.823,22.09012 44.85199,24.92394 3.62312,2.04162 3.83414,2.17183 4.01218,2.47563 0.0851,0.14518 0.1547,0.31119 0.1547,0.36891 0,0.0976 -1.67927,0.10603 -24.07004,0.12064 l -24.07004,0.0157 24.07004,0.0159 c 17.61835,0.0117 24.07004,0.0348 24.07004,0.0862 0,0.0386 -0.0635,0.18329 -0.14119,0.32146 -0.16684,0.29685 -0.54288,0.52649 -4.4992,2.74754 -10.25057,5.7546 -47.43849,26.3876 -47.84087,26.54358 -0.39079,0.1515 -0.78237,0.14866 -1.03852,-0.008 z"
       id="path3001"
       inkscape:connector-curvature="0" />
    <path
       style="fill:#ffffff"
       d="m 442.16832,787.80622 c -0.0852,-0.0451 -0.24508,-0.2001 -0.35524,-0.34453 l -0.20029,-0.26259 -0.0482,-9.4597 c -0.0265,-5.20283 -0.0326,-18.28785 -0.0135,-29.07781 l 0.0347,-19.61811 0.1355,-0.21925 c 0.24268,-0.39266 0.47527,-0.54026 0.85137,-0.54026 0.43301,0 0.54978,0.054 2.93863,1.35765 5.56805,3.03871 42.50503,23.57044 47.0034,26.12723 2.42502,1.37833 3.06259,1.81118 3.06259,2.07919 0,0.0688 -0.0762,0.11774 -0.22772,0.14617 -0.12525,0.0235 -10.36015,0.0624 -22.74422,0.0865 l -22.51649,0.0438 16.73065,0.0201 c 9.20186,0.0111 19.42966,0.0374 22.72844,0.0584 5.95221,0.038 5.99761,0.0392 5.97652,0.16455 -0.0497,0.29549 -0.48395,0.59502 -2.63039,1.8145 -4.63101,2.63106 -37.37633,20.82923 -46.49859,25.84153 -3.16983,1.74169 -3.3311,1.82216 -3.69337,1.84288 -0.22969,0.0131 -0.4398,-0.0106 -0.53375,-0.0603 z"
       id="path3003"
       inkscape:connector-curvature="0" />
    <path
       style="fill:#ffffff"
       d="m 442.16832,787.80622 c -0.0852,-0.0451 -0.24509,-0.20011 -0.35525,-0.34454 l -0.2003,-0.26261 -0.048,-8.63894 c -0.0264,-4.75141 -0.0336,-17.83454 -0.0161,-29.07362 l 0.0319,-20.43469 0.13808,-0.22342 c 0.076,-0.12288 0.22392,-0.29565 0.32883,-0.38392 0.24767,-0.2084 0.72609,-0.21951 1.16136,-0.027 0.48322,0.21374 2.72603,1.4425 10.77573,5.90365 13.35692,7.40239 16.6416,9.22598 22.27349,12.36583 3.03835,1.69392 7.7687,4.33033 10.5119,5.85868 5.22461,2.91086 7.77761,4.3589 8.216,4.66006 0.29701,0.20403 0.59126,0.5308 0.59126,0.6566 0,0.0467 -0.0923,0.10521 -0.20518,0.1301 -0.11286,0.0249 -8.98405,0.0648 -19.71376,0.0886 l -19.50857,0.0433 14.20527,0.0202 c 7.8129,0.0111 16.67698,0.0375 19.69797,0.0585 5.44715,0.0379 5.49253,0.0393 5.47145,0.1645 -0.0478,0.28385 -0.47865,0.58811 -2.34629,1.65681 -3.7114,2.12374 -39.32971,21.91815 -47.3509,26.31464 -2.60745,1.42917 -2.76551,1.50642 -3.12516,1.52721 -0.2301,0.0133 -0.43963,-0.0102 -0.53375,-0.06 l 0,0 z"
       id="path3005"
       inkscape:connector-curvature="0" />
    <path
       style="fill:#ffffff"
       d="m 489.84778,758.09929 c 1.06777,-0.01 2.81502,-0.01 3.88278,0 1.06776,0.01 0.19414,0.0176 -1.94139,0.0176 -2.13552,0 -3.00915,-0.008 -1.94139,-0.0176 z"
       id="path3007"
       inkscape:connector-curvature="0" />
    <path
       style="fill:#ffffff"
       d="m 467.07111,761.26663 0,-3.13502 2.94562,0.002 c 4.28513,0.003 15.76208,0.0176 17.99336,0.0233 l 1.91576,0.005 -0.002,1.86156 -0.002,1.86156 -1.83485,1.02634 c -1.00917,0.56449 -2.0222,1.13078 -2.25118,1.25841 l -0.41633,0.23207 -9.1742,0 -9.1742,0 0,-3.13503 z"
       id="path3009"
       inkscape:connector-curvature="0" />
    <path
       style="fill:#ffffff"
       d="m 484.58305,758.14314 c -1.13938,-0.003 -5.54568,-0.008 -9.79177,-0.0116 -6.46989,-0.005 -7.72017,-0.008 -7.72017,-0.0169 0,-0.009 0.38141,-0.0107 2.33795,-0.0108 4.21167,-1.8e-4 18.14983,-0.0147 19.34679,-0.0202 0.86428,-0.004 1.16996,-0.003 1.16996,0.004 0,0.006 -0.0473,0.009 -0.15981,0.01 -0.0879,5.1e-4 -0.20775,0.003 -0.26635,0.007 -0.085,0.004 -0.0526,0.006 0.15981,0.007 l 0.26635,0.001 0,0.0197 0,0.0197 -1.63558,-0.001 c -0.89957,-8e-4 -2.5678,-0.004 -3.70718,-0.007 z"
       id="path3011"
       inkscape:connector-curvature="0" />
    <path
       style="fill:#ffffff"
       d="m 488.34593,762.77486 c 0.46303,-0.25837 2.62709,-1.47106 3.24492,-1.81839 2.25073,-1.2653 3.01651,-1.709 3.44535,-1.9963 0.24624,-0.16496 0.36433,-0.26739 0.44013,-0.38176 0.059,-0.0891 0.16992,-0.32826 0.16471,-0.35529 -0.003,-0.0133 -0.0264,-0.0158 -0.21928,-0.0228 -0.37819,-0.0137 -1.92995,-0.0292 -3.64118,-0.0365 -0.40053,-0.002 -0.98124,-0.005 -1.29046,-0.007 l -0.56222,-0.004 0,-0.0182 0,-0.0182 1.98521,-1.2e-4 c 1.85342,-1.1e-4 2.38607,-0.003 2.20843,-0.0129 -0.1689,-0.009 -1.94789,-0.0171 -3.04548,-0.0135 -0.77672,0.003 -1.15374,0.002 -1.15374,-0.002 0,-0.003 -0.0132,-0.006 -0.0293,-0.007 -0.0161,-9.3e-4 0.52567,-0.004 1.20396,-0.006 2.89988,-0.01 4.17064,-0.0288 4.45313,-0.0659 0.0897,-0.0118 0.0996,-0.0197 0.0871,-0.0693 -0.0202,-0.0801 -0.11645,-0.2841 -0.1771,-0.37526 -0.1402,-0.2107 -0.40094,-0.38857 -1.4976,-1.0216 -0.31931,-0.18432 -1.09258,-0.62464 -1.56084,-0.88878 l -0.20201,-0.11396 0.0331,-0.002 0.0331,-0.002 0.37257,0.21039 c 1.43628,0.81108 2.37296,1.35205 2.60023,1.50172 0.0529,0.0349 0.12305,0.10371 0.18369,0.18035 0.27172,0.34342 0.32442,0.71272 0.15259,1.06923 -0.0738,0.15314 -0.22118,0.3355 -0.32808,0.40596 -0.11541,0.0761 -0.56015,0.33642 -1.1756,0.68819 -0.78435,0.44832 -3.80675,2.14922 -5.45016,3.06716 l -0.31623,0.17664 -0.0353,0 -0.0353,0 0.11155,-0.0622 z"
       id="path3013"
       inkscape:connector-curvature="0" />
  </g>
  <style
     id="style2986"
     type="text/css">
	.st0{fill:#333333;}
</style>
</svg>
